<svg xmlns="http://www.w3.org/2000/svg" viewBox="0 0 100 100" fill="none" stroke="currentColor" stroke-width="3" stroke-linecap="round" stroke-linejoin="round">
  <!-- 调色板外轮廓 -->
  <path d="M45 5
    C20 5, 5 25, 5 45
    C5 70, 25 85, 45 85
    C55 85, 60 80, 65 75
    C70 70, 75 65, 80 60
    C85 55, 90 50, 90 45
    C90 35, 85 25, 75 20
    C65 15, 55 15, 50 20
    C45 25, 45 30, 50 35
    C55 40, 60 45, 60 50
    C60 55, 55 60, 50 60
    C40 60, 35 55, 35 50
    C35 45, 40 40, 45 40
    C50 40, 50 35, 45 30
    C40 25, 35 20, 35 15
    C35 10, 40 5, 45 5Z"/>
  <!-- 颜料点1 -->
  <circle cx="22" cy="30" r="5"/>
  <!-- 颜料点2 -->
  <circle cx="40" cy="18" r="5"/>
  <!-- 颜料点3 -->
  <circle cx="62" cy="22" r="5"/>
  <!-- 颜料点4 -->
  <circle cx="72" cy="40" r="5"/>
  <!-- 颜料点5 -->
  <circle cx="58" cy="55" r="5"/>
  <!-- 拇指孔 -->
  <ellipse cx="22" cy="55" rx="4" ry="6"/>
  <!-- 画笔笔杆 -->
  <path d="M68 68L95 40"/>
  <!-- 画笔笔尖金属部分 -->
  <path d="M95 40L88 33L75 46L82 53Z"/>
  <!-- 画笔笔毛 -->
  <path d="M82 53L72 75C70 80, 65 82, 62 80C59 78, 58 73, 60 68L68 68"/>
</svg>